<svg class="shirt" xmlns="http://www.w3.org/2000/svg" viewBox="0 0 115 141">
  <path class="shirt-colour" d="M114.531,59.927c-0.063.874-2.3,2.562-6.409,3.578-8.65,2.166-10.8-.622-11.179-1.491s-0.645-6.434-1.491-7.9-1.307-4.272-2.087-4.92c-0.276.412-3.018,4.754-3.428,8.349-0.575,3.641-1.726,5.335-2.385,28.176a451.665,451.665,0,0,0,2.534,47.409,2.71,2.71,0,0,1,.149,1.789c-11.071,5.423-29.918,5.788-32.494,5.812v0h-0.3v0c-2.576-.024-21.423-0.389-32.494-5.812a2.711,2.711,0,0,1,.149-1.789,451.586,451.586,0,0,0,2.534-47.409c-0.659-22.842-1.81-24.536-2.385-28.176-0.41-3.6-3.153-7.937-3.428-8.349-0.78.648-1.241,3.452-2.087,4.92s-1.11,7.035-1.49,7.9-2.529,3.657-11.179,1.491C2.954,62.49.717,60.8,0.654,59.927c-0.084-1.871.3-6.56,0.3-6.56a44.337,44.337,0,0,1,.894-8.5c0.933-4.433,2.822-13.6,4.024-18.486C7.4,21.32,9.3,16.046,17.348,13.861c8.1-2.178,17.573-5.353,23.4-9.541,1.615-1.691,2.009-2.87,2.832-2.982A110.214,110.214,0,0,1,57.444.3h0.3A110.213,110.213,0,0,1,71.6,1.338c0.823,0.112,1.217,1.291,2.832,2.982,5.829,4.188,15.3,7.363,23.4,9.541,8.045,2.185,9.95,7.459,11.478,12.523,1.2,4.881,3.091,14.053,4.024,18.486a44.357,44.357,0,0,1,.894,8.5S114.615,58.056,114.531,59.927Z"></path>
  <path class="detail" d="M57,4.18c-7.237,0-14.866.343-16.676,0.43,0.141-.1.289-0.192,0.425-0.29,1.615-1.691,2.009-2.87,2.832-2.982A110.214,110.214,0,0,1,57.444.3h0.3A110.213,110.213,0,0,1,71.6,1.338c0.823,0.112,1.217,1.291,2.832,2.982,0.065,0.047.136,0.091,0.2,0.138l0.041,0.172S65.282,4.18,57,4.18Z"></path>
  <path class="detail" d="M18.946,56.031a2.438,2.438,0,0,1,.133.452c-0.372,2.171-.578,4.941-0.837,5.531-0.38.869-2.529,3.657-11.179,1.491C2.954,62.49.717,60.8,0.654,59.927c-0.059-1.319.113-4.034,0.22-5.524,0.846,0.811,2.769,1.988,7.135,2.826C15.284,58.481,16.4,58.478,18.946,56.031Zm95.585,3.9c-0.063.874-2.3,2.562-6.409,3.578-8.65,2.166-10.8-.622-11.179-1.491-0.26-.593-0.467-3.392-0.843-5.569,2.259,2.027,3.654,1.96,10.491.784,5.807-1.114,7.3-2.831,7.672-3.482C114.351,54.894,114.6,58.376,114.531,59.927Z"></path>
</svg>